<?xml version="1.0" encoding="UTF-8" standalone="no"?>
<!-- Created with Inkscape (http://www.inkscape.org/) -->

<svg
   version="1.1"
   id="svg1"
   width="278.35889"
   height="228.22461"
   viewBox="0 0 278.35889 228.22461"
   sodipodi:docname="programicons.png"
   xmlns:inkscape="http://www.inkscape.org/namespaces/inkscape"
   xmlns:sodipodi="http://sodipodi.sourceforge.net/DTD/sodipodi-0.dtd"
   xmlns="http://www.w3.org/2000/svg"
   xmlns:svg="http://www.w3.org/2000/svg">
  <defs
     id="defs1" />
  <sodipodi:namedview
     id="namedview1"
     pagecolor="#505050"
     bordercolor="#eeeeee"
     borderopacity="1"
     inkscape:showpageshadow="0"
     inkscape:pageopacity="0"
     inkscape:pagecheckerboard="0"
     inkscape:deskcolor="#505050"
     showgrid="false"
     inkscape:zoom="0.57747396"
     inkscape:cx="767.13416"
     inkscape:cy="512.57723"
     inkscape:window-width="1920"
     inkscape:window-height="1112"
     inkscape:window-x="-8"
     inkscape:window-y="-8"
     inkscape:window-maximized="1"
     inkscape:current-layer="g1" />
  <g
     inkscape:groupmode="layer"
     inkscape:label="Image"
     id="g1"
     transform="translate(-1024.2784,-356.72815)">
    <path
       d="m 1136.957,582.403 c -3.4883,-2.74387 -5.2057,-7.98405 -8.1901,-24.98925 -2.5016,-14.2542 -2.7007,-14.81791 -11.7421,-33.25401 -5.1763,-10.55486 -9.48,-18.20576 -9.8438,-17.5 -0.3556,0.68971 -2.5514,7.89581 -4.8795,16.01356 -3.7909,13.21836 -5.3802,16.87303 -15.2196,35 -6.0427,11.13225 -12.3104,21.47795 -13.9283,22.99045 -5.1712,4.83429 -15.7196,3.03255 -16.15,-2.75853 -0.082,-1.1047 3.5063,-11.2297 7.9742,-22.5 6.5846,-16.60938 9.179,-24.85553 13.6946,-43.527 5.3512,-22.12613 5.5711,-23.56938 5.5711,-36.5583 v -13.52277 l -8.0004,3.97606 c -8.8946,4.42049 -16.4027,5.65271 -22.3942,3.67532 -1.9903,-0.65686 -6.1174,-3.47789 -9.1712,-6.26895 -5.7666,-5.27027 -5.8585,-6.70224 -0.4342,-6.76338 1.375,-0.0155 4.75,-1.06916 7.5,-2.34146 l 5,-2.31327 -9.6614,0.0761 c -8.9672,0.0707 -9.857,-0.10351 -12.3824,-2.42386 -3.758,-3.45287 -7.4347,-11.67153 -7.4464,-16.64514 l -0.01,-4.14514 5.8457,1.81938 c 3.2151,1.00066 9.1776,2.10901 13.25,2.46299 l 7.4043,0.6436 -7.0488,-3.51466 c -15.0457,-7.50211 -21.8339,-16.96943 -21.9093,-30.55642 -0.039,-7.01334 0.1039,-7.54186 1.9581,-7.2524 2.718,0.4243 21.155,11.05285 43.5,25.07692 l 18.5,11.61087 18,0.56389 c 11.0924,0.34749 19.7006,1.10067 22.4314,1.96265 8.616,2.71956 13.956,10.188 31.1903,43.6219 l 8.8396,17.14844 7.7694,-14.11549 c 9.0569,-16.45482 14.617,-22.91416 21.2693,-24.70945 6.248,-1.68617 26.1337,-0.71974 31.7663,1.54382 7.3722,2.96258 11.3087,8.66839 17.4868,25.34611 4.8897,13.19996 6.1891,15.68115 11.566,22.08496 7.4593,8.884 8.5444,12.48357 4.7477,15.74938 -3.4938,3.00523 -5.436,2.90557 -10.1672,-0.52169 -6.7441,-4.88545 -13.5517,-13.36597 -17.8,-22.17452 l -4.0996,-8.5 -0.3066,10 -0.3066,10 8.0956,16.5 8.0957,16.5 2.9746,19.29022 c 3.1393,20.35795 3.059,22.00929 -1.1809,24.2784 -3.1713,1.69724 -8.4261,0.24976 -11.242,-3.09673 -1.6078,-1.91077 -3.0787,-5.70948 -4.1494,-10.71599 -5.1298,-23.98652 -5.189,-24.15235 -13.7443,-38.5059 -4.5075,-7.5625 -8.4304,-13.75 -8.7174,-13.75 -0.287,0 -2.2424,6.6375 -4.3452,14.75 -2.4489,9.44769 -5.1003,17.08661 -7.3756,21.25 -15.9325,29.15305 -16.6287,30.03737 -23.595,29.9682 -4.096,-0.0407 -6.7029,-2.02983 -6.7029,-5.1145 0,-1.3342 2.8621,-9.83459 6.3602,-18.88976 7.2997,-18.89558 12.8261,-41.32326 15.144,-61.45781 0.8227,-7.14663 1.4954,-13.67163 1.4948,-14.5 -5e-4,-0.82837 -2.813,3.41588 -6.25,9.43168 -3.4369,6.0158 -7.9229,12.71226 -9.9688,14.88104 -3.2753,3.47197 -4.104,3.86639 -6.9344,3.30031 -1.768,-0.3536 -4.022,-1.37363 -5.0089,-2.26673 -2.1959,-1.98727 -19.4774,-25.81015 -26.9089,-37.09452 -2.9854,-4.53315 -5.7655,-8.24565 -6.178,-8.25 -0.4125,-0.004 -0.75,6.27913 -0.75,13.9633 0,15.49423 -0.7397,12.59334 10.8889,42.70459 4.5735,11.84246 5.3925,15.23255 8.094,33.5 1.6532,11.17831 3.0083,21.75404 3.0114,23.50162 0.012,6.44479 -9.5951,9.78421 -15.2808,5.31183 z m 127.9755,-22.63361 c -0.379,-0.37894 -0.6717,-7.02647 -0.6505,-14.77231 l 0.038,-14.08333 3.1742,-2 c 5.1658,-3.25488 7.7488,-7.9843 7.7488,-14.18772 0,-6.59362 -2.0503,-10.82182 -9.0037,-18.56813 -4.5574,-5.07707 -5.7003,-7.31774 -9.6912,-19 -5.4045,-15.82008 -7.9261,-20.3827 -14.3896,-26.03685 l -4.881,-4.26981 2.0754,-4.1948 c 4.736,-9.57241 3.1051,-22.67833 -3.7691,-30.28721 l -3.408,-3.77228 0.2836,-11.23495 c 0.2202,-8.72351 0.6189,-11.42622 1.7836,-12.09062 0.825,-0.47062 10.2108,-4.49781 20.8574,-8.9493 12.6738,-5.29915 19.6965,-7.75443 20.3397,-7.11121 0.6073,0.60725 0.9342,13.05362 0.856,32.59264 l -0.1258,31.61024 h 11.8366 c 7.8729,0 12.2384,0.40184 13.0366,1.2 1.3017,1.30169 1.4873,63.76037 0.3099,104.3 l -0.6099,21 -17.561,0.27231 c -9.6586,0.14976 -17.8711,-0.0377 -18.25,-0.41667 z m 20.311,-99.85564 v -7.5 h -4 -4 v 7.5 7.5 h 4 4 z m -23.8196,-19.75 c 0.1758,-1.2375 0.1655,-4.6125 -0.023,-7.5 l -0.3425,-5.25 h -3.9074 -3.9075 v 7.5 7.5 h 3.9304 c 3.3147,0 3.9806,-0.3525 4.25,-2.25 z m 0.8196,-31.85699 c 0,-6.0698 -0.2308,-7.0184 -1.5818,-6.5 -0.87,0.33385 -2.67,0.60699 -4,0.60699 -2.3096,0 -2.4182,0.29196 -2.4182,6.5 v 6.5 h 4 4 z m -96.8314,55.44241 c -2.2108,-4.39717 -5.4952,-10.43397 -7.2986,-13.41513 l -3.279,-5.42029 0.2888,-43 c 0.2094,-31.17513 0.6093,-43.27972 1.4545,-44.01717 0.7621,-0.66496 11.034,-0.83809 29.6657,-0.5 l 28.5,0.51717 v 21.98764 21.98765 l -4.6997,0.67226 c -2.5849,0.36975 -5.0638,0.89725 -5.5087,1.17222 -0.4449,0.27497 -2.7323,0.14822 -5.0832,-0.28166 l -4.2743,-0.78161 0.226,3.82972 c 0.1423,2.41194 -0.3805,4.49979 -1.4121,5.63973 -0.9009,0.99551 -2.5529,3.82692 -3.6711,6.29203 -2.4539,5.40989 -2.7194,16.46644 -0.5399,22.48202 1.3858,3.82487 1.3515,4.06567 -0.7849,5.5 -5.0253,3.37393 -9.4396,8.13154 -12.6702,13.65546 -1.88,3.2145 -4.2001,7.15635 -5.1558,8.75967 l -1.7377,2.91512 z m 13.8314,-54.76642 v -7.431 l -5,0.12215 -5,0.12215 v 7.30885 7.30885 h 5 5 z m 22,-30.93308 v -7.36407 l -4.6035,-0.63098 c -2.5319,-0.34704 -4.8944,-0.45255 -5.25,-0.23447 -0.3556,0.21808 -0.4984,3.81585 -0.3175,7.99505 l 0.329,7.59855 h 4.921 4.921 z m -23,-1.21356 v -7.57763 l -4.75,0.34248 -4.75,0.34248 -0.2938,7.23516 -0.2938,7.23515 h 5.0438 5.0438 z m 31.5,69.85976 c -6.234,-1.51447 -12.4333,-10.11952 -12.478,-17.32023 -0.03,-4.86205 3.7853,-11.98544 7.8759,-14.70382 6.0609,-4.02782 16.7466,-2.61805 21.8044,2.8767 12.0426,13.08298 0.083,33.34668 -17.2023,29.14735 z m -103.6639,-23.27895 c -16.2916,-2.93625 -20.7573,-26.40927 -6.7836,-35.65659 12.5854,-8.32861 30.9475,1.09428 30.9475,15.88132 0,5.15314 -1.9834,10.99033 -4.7881,14.09191 -4.0125,4.43701 -12.4916,6.92412 -19.3758,5.68336 z m 90.1639,-17.00317 c 0,-1.57468 0.6667,-2 3.1349,-2 h 3.1348 l -2.5426,2 c -1.3984,1.1 -2.8091,2 -3.1348,2 -0.3258,0 -0.5923,-0.9 -0.5923,-2 z"
       style="fill:none;stroke:#000000;stroke-opacity:1"
       id="path1-8"
       inkscape:label="urban-escort-initiative"
       inkscape:export-filename="..\..\Local Sites\mythguards\app\public\wp-content\themes\mythguardtheme\images\program-icons\icon-urban-escort-initiative.svg"
       inkscape:export-xdpi="96"
       inkscape:export-ydpi="96" />
  </g>
</svg>
