<?xml version="1.0" encoding="UTF-8" standalone="no"?>
<!-- Created with Inkscape (http://www.inkscape.org/) -->

<svg
   version="1.1"
   id="svg1"
   width="244.00085"
   height="246.09863"
   viewBox="0 0 244.00085 246.09863"
   sodipodi:docname="programicons.png"
   xmlns:inkscape="http://www.inkscape.org/namespaces/inkscape"
   xmlns:sodipodi="http://sodipodi.sourceforge.net/DTD/sodipodi-0.dtd"
   xmlns="http://www.w3.org/2000/svg"
   xmlns:svg="http://www.w3.org/2000/svg">
  <defs
     id="defs1" />
  <sodipodi:namedview
     id="namedview1"
     pagecolor="#505050"
     bordercolor="#eeeeee"
     borderopacity="1"
     inkscape:showpageshadow="0"
     inkscape:pageopacity="0"
     inkscape:pagecheckerboard="0"
     inkscape:deskcolor="#505050"
     showgrid="false"
     inkscape:zoom="0.57747396"
     inkscape:cx="767.13416"
     inkscape:cy="512.57723"
     inkscape:window-width="1920"
     inkscape:window-height="1112"
     inkscape:window-x="-8"
     inkscape:window-y="-8"
     inkscape:window-maximized="1"
     inkscape:current-layer="g1" />
  <g
     inkscape:groupmode="layer"
     inkscape:label="Image"
     id="g1"
     transform="translate(-1081.3541,-651.23193)">
    <path
       d="m 1188.4091,896.25894 c -53.5335,-6.85845 -96.48,-48.41021 -105.2734,-101.85456 -2.3372,-14.20496 -1.3812,-36.16293 2.1773,-50.00872 10.6536,-41.45233 41.3698,-74.17548 81.9614,-87.31643 10.9427,-3.54256 47.4108,-12.6999 88.0206,6.2325 28.7704,13.41282 53.4029,40.90866 63.3469,70.71053 8.2607,24.75685 8.2805,55.21263 0.052,79.77343 -14.0758,42.01367 -49.8096,73.09788 -93.1718,81.04864 -10.3234,1.89287 -28.0929,2.57018 -37.1128,1.41461 z m 33.4843,-20.32784 c 52.2814,-9.13603 90.0611,-59.63473 84.0044,-112.28544 -6.5077,-56.57162 -56.0368,-97.47126 -111.6549,-92.20141 -42.6463,4.04077 -77.7752,33.48658 -90.0138,75.45141 -3.2493,11.14136 -4.3565,29.90622 -2.5099,42.53539 5.1924,35.51074 29.5594,66.52459 63.1154,80.33204 7.4659,3.07204 16.4914,5.58931 24.9398,6.95583 6.1554,0.99564 24.486,0.54602 32.119,-0.78782 z m -28.619,-9.17247 c -33.7724,-5.36933 -59.3306,-23.85187 -73.1006,-52.86297 -6.8511,-14.43425 -8.8085,-23.40299 -8.8388,-40.5 -0.022,-12.13946 0.3437,-15.78528 2.2435,-22.39503 10.017,-34.84965 36.5812,-60.01625 71.5237,-67.76042 7.4994,-1.66208 11.4518,-1.94159 21.6722,-1.53264 17.4633,0.69876 29.2907,4.20025 44.3453,13.12843 8.5453,5.06776 21.3439,16.85276 27.0714,24.92745 13.2419,18.66828 19.7678,42.22542 17.5455,63.33486 -4.1748,39.65483 -31.4501,71.52148 -69.6337,81.35513 -7.6822,1.97845 -26.5503,3.30335 -32.8285,2.30519 z m 29.2448,-36.91334 c 9.3939,-3.15344 16.898,-7.70742 24.7552,-15.02311 l 6,-5.58649 -4.5,-3.98869 c -15.329,-13.58721 -30.4675,-19.81778 -48.2045,-19.83947 -15.7432,-0.0193 -26.9134,4.96428 -39.7259,17.7235 l -7.4303,7.39948 4.4303,3.92556 c 19.625,17.38895 42.5021,22.83248 64.6752,15.38922 z m -26.4463,-8.40915 c -8.7366,-5.32703 -8.222,-18.45831 0.9423,-24.04588 6.3465,-3.86947 15.4245,-1.55361 19.1418,4.88316 2.4235,4.19645 2.5318,11.07766 0.2297,14.59114 -4.1363,6.31288 -13.8666,8.50266 -20.3138,4.57158 z m 45.7041,-65.79048 v -20.75 l 7.0246,-0.0772 c 8.2946,-0.0912 10.7018,-1.55788 7.2236,-4.40123 -3.3956,-2.77584 -27.1684,-16.89233 -41.0507,-24.37627 -11.2829,-6.08255 -12.479,-6.51506 -14.5,-5.24296 -1.2115,0.76255 -8.7278,4.83625 -16.7028,9.05265 -16.2759,8.60514 -34.9555,20.45293 -34.9823,22.18806 -0.027,1.76017 2.5212,2.35699 10.0641,2.35699 h 6.9179 v 20.10699 c 0,15.71811 0.2728,19.98454 1.25,19.54601 13.3563,-5.99404 19.7583,-8.0201 38.6446,-12.22994 1.3821,-0.30807 2.0164,-0.90141 1.5,-1.40325 -1.2261,-1.19167 -15.1302,-3.01985 -22.967,-3.01985 h -6.4276 v -11.5 -11.5 h 25 25 v 18.77024 18.77024 l 5.75,2.10141 c 3.1625,1.15577 6.3125,2.15916 7,2.22976 0.9639,0.099 1.2506,-4.62111 1.2526,-20.62165 z"
       style="fill:none;stroke:#000000;stroke-opacity:1"
       id="path1-9"
       inkscape:label="perimeter-watch-program" />
  </g>
</svg>
