<?xml version="1.0" encoding="UTF-8" standalone="no"?>
<!-- Created with Inkscape (http://www.inkscape.org/) -->

<svg
   version="1.1"
   id="svg1"
   width="1024"
   height="1024"
   viewBox="0 0 1024 1024"
   xmlns="http://www.w3.org/2000/svg"
   xmlns:svg="http://www.w3.org/2000/svg">
  <defs
     id="defs1" />
  <g
     id="g1">
    <path
       style="fill:currentColor"
       d="M 490.99038,912.41032 C 449.51884,870.72751 420.36044,846.15145 375.33434,814.93006 323.42397,778.93505 307.52911,766.49222 288.97983,747.32993 254.98209,712.20863 233.73351,670.99211 226.58504,626.30088 223.4499,606.70037 223.05351,582.80125 222.6382,388.33876 l -0.41894,-196.16124 10.64037,-0.60156 c 71.93381,-4.06676 123.07768,-16.0883 176.71498,-41.53748 31.71529,-15.04788 63.24291,-35.71353 92.70415,-60.765485 4.82832,-4.105695 9.32832,-7.234955 10,-6.953913 0.67168,0.281042 6.19019,4.711721 12.26335,9.845952 39.41497,33.321306 79.44191,56.159526 129.95789,74.150236 40.23359,14.32875 76.85261,21.2993 125.35951,23.86258 l 22.35951,1.18156 -0.5216,204.57029 c -0.37409,146.71813 -0.85451,207.68108 -1.69883,215.5703 -5.82855,54.4617 -29.56495,101.85897 -71.1256,142.02489 C 710.11916,771.64936 697.78119,781.00734 643.8662,818 599.87177,848.18587 567.77811,875.24123 527.11717,916.42092 518.65662,924.98941 511.45229,932 511.10755,932 c -0.34473,0 -9.39746,-8.81535 -20.11717,-19.58968 z m 35.94529,-25.70718 c 34.20615,-33.61833 57.84797,-52.74089 111.56433,-90.2382 46.31071,-32.32773 56.79448,-40.38169 74.82132,-57.4801 18.23242,-17.2934 36.26759,-41.25693 45.94621,-61.04923 5.92072,-12.10759 12.11963,-30.59519 15.51069,-46.25903 l 2.63611,-12.17658 0.31604,-203.6062 0.31605,-203.60621 -11.27321,-0.68154 C 719.98151,208.7772 670.39968,197.46529 623.5,178.91882 590.76411,165.97341 546.88097,140.41503 520.32861,118.82983 516.38435,115.62343 512.88796,113 512.55885,113 c -0.3291,0 -5.87698,3.99453 -12.32861,8.87673 -42.77911,32.37261 -83.61972,53.49688 -137.73024,71.23917 -31.48246,10.32277 -76.08405,18.13838 -108.75,19.05643 l -7.75,0.21781 0,197.25371 c 0,216.55536 -0.23008,207.67878 6.0252,232.45596 9.02575,35.75102 25.99831,64.0893 56.89055,94.98741 20.49484,20.49873 31.19679,28.84828 80.58425,62.87091 42.2984,29.13904 75.45835,56.26029 106,86.69653 8.25,8.22153 15.19605,15.03758 15.43567,15.14679 0.23962,0.1092 7.43962,-6.68504 16,-15.09831 z M 461.94541,809.25406 C 442.5027,786.06168 422.91629,770.21065 396.4685,756.26444 334.2979,723.48118 300.52683,690.40173 288.36857,650.37834 c -2.327,-7.66019 -2.70881,-10.7306 -2.78281,-22.37834 -0.0674,-10.60637 0.30143,-14.60983 1.72063,-18.6778 2.35839,-6.76007 6.67722,-12.62121 11.79622,-16.0088 3.45354,-2.28544 5.19824,-2.72516 10.81279,-2.72516 4.83972,0 7.61996,0.54195 10.03367,1.95588 5.19641,3.044 8.93765,8.35028 9.67371,13.72042 0.55684,4.06262 0.27694,5.2886 -1.98927,8.71308 -2.50901,3.79137 -6.39602,5.90522 -8.48483,4.61427 -0.57317,-0.35424 -0.19021,-2.20005 0.94316,-4.54584 2.61406,-5.41047 2.41868,-9.28588 -0.65212,-12.93532 -4.54182,-5.39764 -13.21168,-5.09089 -18.72116,0.66239 -9.94488,10.38495 -10.19776,33.80218 -0.61364,56.82428 11.14776,26.77811 43.17651,58.37607 81.37064,80.2762 4.91728,2.81952 9.34052,5.1264 9.82943,5.1264 0.4889,0 -1.1484,-2.1375 -3.63845,-4.75 -14.80117,-15.52903 -18.94096,-29.03647 -11.65307,-38.02201 2.69341,-3.32081 7.08095,-5.39452 8.65309,-4.08976 0.99701,0.82745 0.60252,1.88857 -1.82522,4.90958 -2.80625,3.49199 -3.0546,4.36698 -2.64421,9.31579 0.82741,9.97746 12.08557,24.46616 30.79869,39.6364 18.50859,15.00444 23.64247,19.35238 31.00418,26.2578 13.59247,12.74997 23.14136,25.23879 25.6365,33.52949 0.75189,2.49836 1.22921,4.68033 1.0607,4.84884 -0.16851,0.16851 -3.20681,-3.15342 -6.75179,-7.38207 z m 93.40786,5.99594 c 0.26842,-0.9625 0.80694,-2.85033 1.19671,-4.19517 1.21028,-4.17583 6.51363,-12.20358 13.76779,-20.84048 7.23243,-8.61102 20.68606,-20.85103 38.68223,-35.1928 15.72453,-12.53141 28.97045,-26.23144 32.8066,-33.93127 3.83004,-7.68758 3.98762,-11.29868 0.75809,-17.37259 -3.08541,-5.80286 -1.73081,-7.69171 3.25311,-4.53611 4.36639,2.7646 6.45143,7.13227 6.39514,13.39634 -0.067,7.45813 -6.04366,18.1304 -16.05684,28.67208 -1.9591,2.0625 -3.26624,3.75 -2.90476,3.75 1.52281,0 18.65097,-10.45639 28.55302,-17.43104 44.32176,-31.21862 67.51435,-63.71751 68.97053,-96.64574 0.69194,-15.64659 -2.65202,-25.2282 -10.69657,-30.64942 -11.15964,-7.52049 -23.63856,4.74757 -15.57832,15.31509 3.01124,3.94793 3.06868,4.41111 0.54705,4.41111 -10.74151,0 -14.53042,-15.41597 -5.81637,-23.66511 4.8254,-4.56797 7.60531,-5.68205 14.26932,-5.71862 9.3215,-0.0512 16.50244,4.58845 21.36158,13.8017 3.31569,6.28679 4.42946,13.98369 3.91886,27.08203 -0.41557,10.66055 -0.90665,13.28364 -4.39953,23.5 -12.63831,36.96591 -47.51169,70.20779 -104.88091,99.97421 -28.91672,15.00364 -45.89191,28.49652 -65.13834,51.77579 -4.66087,5.6375 -8.70429,10.25 -8.98537,10.25 -0.28109,0 -0.29145,-0.7875 -0.023,-1.75 z M 251.60478,422.41247 c -1.736,-4.52395 0.98581,-22.77025 5.58084,-37.41247 4.42772,-14.1091 12.28097,-29.30358 25.84244,-50 12.48783,-19.05791 21.94711,-36.96457 23.87335,-45.19282 3.62707,-15.49367 -2.14899,-26.7934 -13.70107,-26.80344 -5.50686,-0.005 -9.46329,2.06761 -12.1038,6.34005 -2.88935,4.67507 -2.73502,10.43626 0.40346,15.06107 2.73446,4.02945 3.27336,7.59514 1.14788,7.59514 -2.46156,0 -7.91557,-4.44527 -9.79627,-7.9844 -2.18779,-4.11702 -2.42244,-11.71765 -0.50315,-16.29772 6.10437,-14.56705 24.45589,-18.39179 36.2193,-7.54865 10.87927,10.02816 11.19007,27.54385 0.857,48.29852 -2.47328,4.96774 -9.72199,16.45725 -16.10825,25.53225 -14.57461,20.7108 -18.45691,27.00038 -24.38175,39.5 -7.33364,15.47174 -7.23897,16.06519 1.18075,7.40176 12.43074,-12.79056 21.04827,-16.1853 30.18456,-11.89073 5.11639,2.40498 8.69993,6.50999 8.69993,9.96592 0,2.15938 -0.01,2.16035 -2.45286,0.23879 -4.23962,-3.33489 -10.85906,-4.66831 -16.01223,-3.22551 -8.44397,2.36416 -19.30734,11.94976 -26.64363,23.50977 -2.6924,4.24248 -9.89128,20.47149 -9.89128,22.29869 0,1.8329 -1.75484,2.28258 -2.39522,0.61378 z M 768.87054,419.25 C 757.32419,392.05857 741.317,375 727.34784,375 723.4866,375 715,378.49778 715,380.08921 715,380.59014 714.325,381 713.5,381 c -3.94536,0 1.05392,-8.33382 7.02957,-11.71832 8.8672,-5.02222 18.92447,-1.666 31.17644,10.40393 4.0117,3.95209 7.29399,6.75564 7.29399,6.23013 0,-2.19475 -5.4235,-14.03724 -10.71074,-23.38743 -5.46649,-9.66718 -10.78144,-17.72689 -22.03341,-33.41192 -7.34924,-10.24471 -14.08755,-22.92999 -16.98605,-31.97725 -3.12161,-9.74371 -2.91569,-23.20176 0.45351,-29.63914 7.48374,-14.29884 25.42981,-17.85242 36.87574,-7.30194 5.10132,4.70224 6.82896,9.62713 6.16899,17.58556 -0.51348,6.19191 -2.86101,9.86671 -8.12345,12.71638 -3.20511,1.73561 -3.8165,1.80335 -4.6248,0.51247 -0.64836,-1.03546 -0.21138,-2.7162 1.43789,-5.53048 3.90617,-6.66536 4.19155,-10.69844 1.12707,-15.92759 -2.02158,-3.44956 -3.5277,-4.75663 -6.51089,-5.65042 -11.75471,-3.52179 -22.50702,7.44811 -20.60788,21.02492 1.55962,11.14964 8.39275,25.89529 19.81488,42.7598 21.32461,31.48531 28.57942,46.43905 33.77498,69.61761 2.08139,9.28559 3.73632,26.69369 2.53767,26.69369 -0.38828,0 -1.61362,-2.1375 -2.72297,-4.75 z"
       id="path1" />
  </g>
</svg>
